<mxfile host="app.diagrams.net" modified="2023-09-18T06:27:30.417Z" agent="Mozilla/5.0 (Macintosh; Intel Mac OS X 10_15_7) AppleWebKit/537.36 (KHTML, like Gecko) Chrome/116.0.0.0 Safari/537.36" version="21.7.2" etag="J4Q3XZfofLqZf2wvCVhB" type="github">
  <diagram name="第 1 页" id="e2N0RXFgBAuNs4h5yDtX">
    <mxGraphModel>
      <root>
        <mxCell id="0" />
        <mxCell id="1" parent="0" />
      </root>
    </mxGraphModel>
  </diagram>
</mxfile>
